<?xml version="1.0" encoding="utf-8"?>
<!-- Generator: Adobe Illustrator 15.0.0, SVG Export Plug-In . SVG Version: 6.00 Build 0)  -->
<!DOCTYPE svg PUBLIC "-//W3C//DTD SVG 1.1//EN" "http://www.w3.org/Graphics/SVG/1.1/DTD/svg11.dtd">
<svg version="1.1" id="Layer_1" xmlns="http://www.w3.org/2000/svg" xmlns:xlink="http://www.w3.org/1999/xlink" x="0px" y="0px"
	 width="1920px" height="1080px" viewBox="0 0 1920 1080" enable-background="new 0 0 1920 1080" xml:space="preserve">
<g>
	<defs>
		<rect id="SVGID_1_" width="1920" height="1080"/>
	</defs>
	<clipPath id="SVGID_2_">
		<use xlink:href="#SVGID_1_"  overflow="visible"/>
	</clipPath>
	<g clip-path="url(#SVGID_2_)">
		<polygon fill="#BC211D" points="1737.152,1196.113 1157.969,1048.049 1541.388,1075.222 1757.948,1100.907 		"/>
		<polygon fill="#2C9ED8" points="2133.693,1271.245 2070.216,1143.284 1975.245,1210.618 		"/>
		<polygon fill="#B9211D" points="1846.913,953.218 1880.183,1062.746 1895.382,1117.44 1965.752,927.473 		"/>
		<polygon fill="#B9211D" points="1992.35,995.489 1927.219,859.456 1859.163,916.361 		"/>
		<polygon fill="#B9211D" points="2090.135,1134.665 2205.33,1246.367 1997.077,1222.9 1984.252,1202.162 2047.985,1152.905 		"/>
		<polygon fill="#2C9ED8" points="2178.68,907.506 1994.817,801.623 1899.774,1046.175 2046.377,1120.571 		"/>
		<polygon fill="#2C9ED8" points="2001.168,1191.393 1930.277,1082.858 1737.152,1196.113 1741.371,1280.916 		"/>
		<polygon fill="#87C585" points="2079.554,1139.243 1962.224,1219.391 1966.442,1304.192 		"/>
		<polygon fill="#87C585" points="2090.135,1134.665 2209.878,995.591 2208.158,961.056 1899.774,1046.175 2046.93,1131.697 		"/>
		<path fill="#FFED00" d="M1764.059,1159.903c3.922,2.811,128.849,158.625,128.849,158.625l104.17-95.628L1764.059,1159.903z"/>
		<polygon fill="#2C9ED8" points="1925.757,1066.141 1761.833,1005.226 1782.727,1199.509 		"/>
		<path fill="#FFFFFF" d="M1550.011,790.439"/>
		<polygon fill="#FFED00" points="1899.774,1046.175 1757.948,1100.907 1354.39,1061.293 		"/>
	</g>
	<g clip-path="url(#SVGID_2_)">
		<polygon fill="#BC211D" points="-279.611,7.21 -947.987,-163.657 -505.522,-132.299 -255.612,-102.659 		"/>
		<polygon fill="#2C9ED8" points="177.998,93.912 104.744,-53.755 -4.852,23.948 		"/>
		<polygon fill="#B9211D" points="-152.946,-273.092 -114.554,-146.696 -48.164,-131.185 -15.807,-302.801 		"/>
		<polygon fill="#B9211D" points="53.993,-296.072 -21.168,-453.055 -99.704,-387.385 		"/>
		<polygon fill="#B9211D" points="110.147,-73.659 243.083,55.245 2.758,28.164 -12.042,4.232 61.507,-52.61 		"/>
		<polygon fill="#87C585" points="-76.148,-122.521 -162.678,-316.606 -425.434,-268.353 -628.484,-146.988 		"/>
		<polygon fill="#2C9ED8" points="229.912,-325.842 17.734,-448.031 -91.945,-165.819 77.235,-79.966 		"/>
		<polygon fill="#2C9ED8" points="25.063,1.762 -56.745,-123.486 -279.611,7.21 -274.742,105.071 		"/>
		<polygon fill="#87C585" points="115.521,-58.418 -19.878,34.072 -15.01,131.933 		"/>
		<polygon fill="#87C585" points="127.731,-63.702 265.914,-224.193 263.93,-264.047 -91.945,-165.819 77.872,-67.126 		"/>
		<path fill="#FFED00" d="M-248.561-34.577c4.527,3.244,148.691,183.053,148.691,183.053L20.342,38.121L-248.561-34.577z"/>
		<polygon fill="#2C9ED8" points="-255.612,-102.659 -480.602,-163.237 -279.611,7.21 		"/>
		<path fill="#FFFFFF" d="M-495.571-460.937"/>
		<polygon fill="#FFED00" points="-91.945,-165.819 -255.612,-102.659 -721.317,-148.373 		"/>
	</g>
	<g clip-path="url(#SVGID_2_)">
		<polygon fill="#BC211D" points="1852.39,-184.459 1782.141,-870.743 1905.38,-444.633 1963.791,-199.843 		"/>
		<polygon fill="#2C9ED8" points="1858.749,236.931 2009.159,169.494 1935.792,56.95 		"/>
		<polygon fill="#B9211D" points="2159.182,-162.29 2053.797,-82.644 2062.146,-14.977 2234.387,-43.826 		"/>
		<polygon fill="#B9211D" points="2252.154,24.01 2373.562,-100.702 2284.827,-151.753 		"/>
		<polygon fill="#B9211D" points="2018.203,192.85 1884.213,320.658 1920.646,81.572 1945.136,67.716 1999.067,143.425 		"/>
		<polygon fill="#87C585" points="2044.355,-38.255 2196.666,-186.439 2060.713,-416.408 1876.739,-565.111 		"/>
		<polygon fill="#2C9ED8" points="2340.797,178.854 2382.27,-62.455 2079.545,-68.022 2057.34,120.391 		"/>
		<polygon fill="#2C9ED8" points="1962.631,99.626 2051.957,-20.376 1852.39,-184.459 1762.219,-146.121 		"/>
		<polygon fill="#87C585" points="2050.326,163.761 1916.798,68.592 1826.626,106.927 		"/>
		<polygon fill="#87C585" points="2059.498,173.398 2257.812,247.719 2294.534,232.104 2079.545,-68.022 2045.509,125.421 		"/>
		<path fill="#FFED00" d="M1902.323-169.734c-1.483,5.368-120.505,202.722-120.505,202.722l145.056,74.751L1902.323-169.734z"/>
		<polygon fill="#2C9ED8" points="1963.791,-199.843 1943.016,-431.917 1852.39,-184.459 		"/>
		<path fill="#FFFFFF" d="M2217.268-548.689"/>
		<polygon fill="#FFED00" points="2079.545,-68.022 1963.791,-199.843 1846.007,-652.721 		"/>
	</g>
	<g clip-path="url(#SVGID_2_)">
		<path fill="#BC211D" d="M70.627,1037.409c0.804,1.282,6.288,7.312,16.013,5.862c11.418-1.701,12.58-10.706,12.58-10.706
			C87.965,1045.771,73.03,1038.691,70.627,1037.409z"/>
		<path fill="#BC211D" d="M90.609,1000.126c9.312-0.184,18.246-15.029,26.243-23.15c10.513-10.679,22.391-7.19,25.613-5.773
			c-13.318-6.142-22.499-1.199-34.877,11.728c-10.29,10.745-15.356,12.252-17.767,12.031c1.324-0.848,2.115-2.331,2.202-4.016
			c0.114-2.128-1.045-3.855-3.602-4.473c-2.563-0.617-4.87-0.456-6.206,2.542C80.587,992.677,83.289,1000.269,90.609,1000.126z"/>
		<path fill="#BC211D" d="M107.792,996.841c-12.815,25.629-17.745,28.587-24.648,29.573c-6.899,0.986-17.069-2.957-15.098-15.774
			c1.802-11.711,19.717-10.833,17.551,2.119c2.092-2.337,4.765-14.863-9.816-15.383c-5.154-0.185-10.509,2.705-13.574,6.942
			c-3.068,4.233-3.973,6.444-8.618,8.951c-6.547,3.531-8.816,8.448-6.926,13.852c1.75,4.993,9.751,6.428,12.48,3.161
			c2.324-3.147,0.687-6.98-3.194-6.937c-2.699,0.031-3.889,2.105-3.904,4.271c-1.317-0.663-3.54-2.523-1.562-6.634
			c1.721-3.575,6.517-4.944,9.582-5.16c0.104,3.295,0.865,6.395,2.066,8.621c4.417,8.186,14.404,12.718,26.618,8.872
			c12.509-3.94,19.32-27.344,21.688-33.517c2.646-6.902,9.86-26.617,26.616-28.329C133.042,971.325,120.607,971.208,107.792,996.841
			z M65.116,1019.097c-1.023-1.078-3.142-8.346-0.726-12.877c3.6-6.745,9.888-5.817,9.888-5.817
			C61.477,1003.891,65.116,1019.097,65.116,1019.097z"/>
	</g>
</g>
</svg>
