<?xml version="1.0" encoding="utf-8"?>
<!-- Generator: Adobe Illustrator 15.0.0, SVG Export Plug-In . SVG Version: 6.00 Build 0)  -->
<!DOCTYPE svg PUBLIC "-//W3C//DTD SVG 1.1//EN" "http://www.w3.org/Graphics/SVG/1.1/DTD/svg11.dtd">
<svg version="1.1" id="Layer_1" xmlns="http://www.w3.org/2000/svg" xmlns:xlink="http://www.w3.org/1999/xlink" x="0px" y="0px"
	 width="1280px" height="800px" viewBox="0 0 1280 800" enable-background="new 0 0 1280 800" xml:space="preserve">
<g>
	<defs>
		<rect id="SVGID_1_" width="1279" height="800"/>
	</defs>
	<clipPath id="SVGID_2_">
		<use xlink:href="#SVGID_1_"  overflow="visible"/>
	</clipPath>
	<g clip-path="url(#SVGID_2_)">
		<polygon fill="#BC211D" points="1158.043,890.776 729.019,781.099 1013.032,801.227 1173.447,820.253 		"/>
		<polygon fill="#2C9ED8" points="1451.777,946.43 1404.757,851.644 1334.408,901.521 		"/>
		<polygon fill="#B9211D" points="1239.348,710.854 1263.991,791.985 1275.25,832.5 1327.376,691.783 		"/>
		<polygon fill="#B9211D" points="1347.078,742.166 1298.833,641.4 1248.422,683.553 		"/>
		<polygon fill="#B9211D" points="1419.512,845.259 1504.842,928.001 1350.58,910.618 1341.08,895.257 1388.29,858.771 		"/>
		<polygon fill="#2C9ED8" points="1485.101,676.993 1348.906,598.562 1278.504,779.711 1387.099,834.819 		"/>
		<polygon fill="#2C9ED8" points="1353.61,887.279 1301.099,806.884 1158.043,890.776 1161.168,953.593 		"/>
		<polygon fill="#87C585" points="1411.674,848.65 1324.763,908.019 1327.888,970.835 		"/>
		<polygon fill="#87C585" points="1419.512,845.259 1508.21,742.241 1506.937,716.659 1278.504,779.711 1387.508,843.061 		"/>
		<path fill="#FFED00" d="M1177.974,863.954c2.905,2.082,95.443,117.5,95.443,117.5l77.163-70.836L1177.974,863.954z"/>
		<polygon fill="#2C9ED8" points="1297.75,794.5 1176.325,749.378 1191.802,893.291 		"/>
		<path fill="#FFFFFF" d="M1019.42,590.277"/>
		<polygon fill="#FFED00" points="1278.504,779.711 1173.447,820.253 874.516,790.909 		"/>
	</g>
	<g clip-path="url(#SVGID_2_)">
		<polygon fill="#BC211D" points="-207.119,5.341 -702.212,-121.227 -374.461,-98 -189.342,-76.043 		"/>
		<polygon fill="#2C9ED8" points="131.85,69.564 77.588,-39.818 -3.594,17.739 		"/>
		<polygon fill="#B9211D" points="-113.293,-202.29 -84.855,-108.664 -35.677,-97.174 -11.709,-224.297 		"/>
		<polygon fill="#B9211D" points="39.995,-219.312 -15.68,-335.596 -73.854,-286.952 		"/>
		<polygon fill="#B9211D" points="81.59,-54.562 180.061,40.922 2.043,20.862 -8.92,3.135 45.561,-38.97 		"/>
		<polygon fill="#87C585" points="-56.406,-90.756 -120.502,-234.523 -315.136,-198.78 -465.543,-108.88 		"/>
		<polygon fill="#2C9ED8" points="170.305,-241.365 13.137,-331.875 -68.107,-122.829 57.211,-59.234 		"/>
		<polygon fill="#2C9ED8" points="18.565,1.305 -42.033,-91.471 -207.119,5.341 -203.513,77.831 		"/>
		<polygon fill="#87C585" points="85.571,-43.272 -14.725,25.238 -11.119,97.728 		"/>
		<polygon fill="#87C585" points="94.616,-47.187 196.973,-166.069 195.503,-195.59 -68.107,-122.829 57.683,-49.723 		"/>
		<path fill="#FFED00" d="M-184.119-25.612c3.353,2.403,110.142,135.595,110.142,135.595l89.046-81.745L-184.119-25.612z"/>
		<polygon fill="#2C9ED8" points="-189.342,-76.043 -356.001,-120.916 -207.119,5.341 		"/>
		<path fill="#FFFFFF" d="M-367.09-341.435"/>
		<polygon fill="#FFED00" points="-68.107,-122.829 -189.342,-76.043 -534.309,-109.906 		"/>
	</g>
	<g clip-path="url(#SVGID_2_)">
		<polygon fill="#BC211D" points="1232.108,-75.978 1180.072,-584.336 1271.36,-268.699 1314.628,-87.374 		"/>
		<polygon fill="#2C9ED8" points="1288.79,264.334 1372.731,175.664 1290.697,119.327 		"/>
		<polygon fill="#B9211D" points="1459.362,-59.556 1381.299,-0.559 1387.483,49.564 1515.069,28.195 		"/>
		<polygon fill="#B9211D" points="1528.23,78.444 1618.162,-13.935 1552.433,-51.751 		"/>
		<polygon fill="#B9211D" points="1385.522,189.102 1329.88,314.472 1287.282,140.465 1300.138,124.059 1358.456,160.665 		"/>
		<polygon fill="#87C585" points="1374.306,32.321 1487.128,-77.444 1386.422,-247.792 1250.146,-357.942 		"/>
		<polygon fill="#2C9ED8" points="1593.892,193.143 1624.612,14.396 1400.372,10.272 1383.924,149.837 		"/>
		<polygon fill="#2C9ED8" points="1313.769,134.456 1379.937,45.565 1232.108,-75.978 1165.315,-47.579 		"/>
		<polygon fill="#87C585" points="1378.729,181.963 1279.818,111.467 1213.024,139.864 		"/>
		<polygon fill="#87C585" points="1385.522,189.102 1532.422,244.154 1559.623,232.587 1400.372,10.272 1375.16,153.563 		"/>
		<path fill="#FFED00" d="M1269.097-65.07c-1.099,3.977-89.263,150.165-89.263,150.165l107.448,55.371L1269.097-65.07z"/>
		<polygon fill="#2C9ED8" points="1314.628,-87.374 1299.239,-259.28 1232.108,-75.978 		"/>
		<path fill="#FFFFFF" d="M1502.389-345.778"/>
		<polygon fill="#FFED00" points="1400.372,10.272 1314.628,-87.374 1227.381,-422.838 		"/>
	</g>
	<g clip-path="url(#SVGID_2_)">
		<path fill="#BC211D" d="M52.316,768.451c0.596,0.95,4.657,5.417,11.861,4.343c8.458-1.261,9.318-7.931,9.318-7.931
			C65.159,774.646,54.097,769.401,52.316,768.451z"/>
		<path fill="#BC211D" d="M67.118,740.834c6.897-0.136,13.516-11.133,19.439-17.148c7.787-7.91,16.586-5.326,18.973-4.276
			c-9.865-4.55-16.666-0.889-25.835,8.687c-7.622,7.96-11.375,9.076-13.16,8.912c0.98-0.628,1.566-1.727,1.631-2.975
			c0.084-1.576-0.774-2.855-2.668-3.312c-1.898-0.457-3.607-0.338-4.597,1.883C59.694,735.316,61.695,740.939,67.118,740.834z"/>
		<path fill="#BC211D" d="M79.846,738.4c-9.493,18.984-13.145,21.176-18.258,21.906c-5.11,0.73-12.644-2.19-11.184-11.685
			c1.335-8.675,14.605-8.024,13.001,1.569c1.55-1.73,3.529-11.01-7.271-11.395c-3.817-0.137-7.784,2.004-10.055,5.143
			c-2.272,3.136-2.942,4.773-6.384,6.631c-4.85,2.615-6.53,6.258-5.13,10.26c1.296,3.699,7.223,4.762,9.244,2.342
			c1.722-2.331,0.509-5.171-2.366-5.138c-1.999,0.022-2.881,1.56-2.892,3.163c-0.976-0.491-2.622-1.869-1.157-4.914
			c1.274-2.648,4.827-3.662,7.098-3.822c0.077,2.44,0.641,4.736,1.53,6.386c3.271,6.063,10.67,9.421,19.717,6.572
			c9.266-2.919,14.312-20.255,16.065-24.827c1.96-5.113,7.304-19.717,19.716-20.984C98.55,719.5,89.339,719.413,79.846,738.4z
			 M48.234,754.887c-0.758-0.799-2.327-6.183-0.538-9.539c2.667-4.996,7.324-4.309,7.324-4.309
			C45.538,743.623,48.234,754.887,48.234,754.887z"/>
	</g>
</g>
</svg>
